<svg width="24" height="24" viewBox="0 0 24 24" fill="none" xmlns="http://www.w3.org/2000/svg">
<path fill-rule="evenodd" clip-rule="evenodd" d="M12 24C18.6274 24 24 18.6274 24 12C24 5.37258 18.6274 0 12 0C5.37258 0 0 5.37258 0 12C0 18.6274 5.37258 24 12 24ZM13.3333 10.6667H17C17.0884 10.6667 17.1732 10.7018 17.2357 10.7643C17.2982 10.8268 17.3333 10.9116 17.3333 11V13C17.3333 13.0884 17.2982 13.1732 17.2357 13.2357C17.1732 13.2982 17.0884 13.3333 17 13.3333H13.3333V17C13.3333 17.0884 13.2982 17.1732 13.2357 17.2357C13.1732 17.2982 13.0884 17.3333 13 17.3333H11C10.9116 17.3333 10.8268 17.2982 10.7643 17.2357C10.7018 17.1732 10.6667 17.0884 10.6667 17V13.3333H7C6.91159 13.3333 6.82681 13.2982 6.7643 13.2357C6.70179 13.1732 6.66667 13.0884 6.66667 13V11C6.66667 10.9116 6.70179 10.8268 6.7643 10.7643C6.82681 10.7018 6.91159 10.6667 7 10.6667H10.6667V7C10.6667 6.91159 10.7018 6.82681 10.7643 6.7643C10.8268 6.70179 10.9116 6.66667 11 6.66667H13C13.0884 6.66667 13.1732 6.70179 13.2357 6.7643C13.2982 6.82681 13.3333 6.91159 13.3333 7V10.6667Z" fill="white"/>
</svg>
